<svg width="20" height="13" viewBox="0 0 20 13" fill="none" xmlns="http://www.w3.org/2000/svg">
<path d="M0.714286 2.38775H19.2857C19.6802 2.38775 20 2.15021 20 1.85714V0.530612C20 0.237548 19.6802 0 19.2857 0H0.714286C0.319777 0 0 0.237548 0 0.530612V1.85714C0 2.15021 0.319777 2.38775 0.714286 2.38775ZM0.714286 7.69388H19.2857C19.6802 7.69388 20 7.45633 20 7.16327V5.83673C20 5.54367 19.6802 5.30612 19.2857 5.30612H0.714286C0.319777 5.30612 0 5.54367 0 5.83673V7.16327C0 7.45633 0.319777 7.69388 0.714286 7.69388ZM0.714286 13H19.2857C19.6802 13 20 12.7625 20 12.4694V11.1429C20 10.8498 19.6802 10.6122 19.2857 10.6122H0.714286C0.319777 10.6122 0 10.8498 0 11.1429V12.4694C0 12.7625 0.319777 13 0.714286 13Z" fill="black" fill-opacity="0.5"/>
</svg>
