<svg width="33" height="33" viewBox="0 0 33 33" fill="none" xmlns="http://www.w3.org/2000/svg">
<path d="M32.0179 24.4464C32.5179 24.9464 32.7679 25.5536 32.7679 26.2679C32.7679 26.9821 32.5179 27.5893 32.0179 28.0893L28.375 31.7321C27.875 32.2321 27.2679 32.4821 26.5536 32.4821C25.8393 32.4821 25.2321 32.2321 24.7321 31.7321L16.8571 23.8571L8.98214 31.7321C8.48214 32.2321 7.875 32.4821 7.16071 32.4821C6.44643 32.4821 5.83929 32.2321 5.33929 31.7321L1.69643 28.0893C1.19643 27.5893 0.946429 26.9821 0.946429 26.2679C0.946429 25.5536 1.19643 24.9464 1.69643 24.4464L9.57143 16.5714L1.69643 8.69643C1.19643 8.19643 0.946429 7.58928 0.946429 6.875C0.946429 6.16071 1.19643 5.55357 1.69643 5.05357L5.33929 1.41071C5.83929 0.910712 6.44643 0.660712 7.16071 0.660712C7.875 0.660712 8.48214 0.910712 8.98214 1.41071L16.8571 9.28571L24.7321 1.41071C25.2321 0.910712 25.8393 0.660712 26.5536 0.660712C27.2679 0.660712 27.875 0.910712 28.375 1.41071L32.0179 5.05357C32.5179 5.55357 32.7679 6.16071 32.7679 6.875C32.7679 7.58928 32.5179 8.19643 32.0179 8.69643L24.1429 16.5714L32.0179 24.4464Z" fill="black"/>
</svg>
