<svg width="20" height="20" viewBox="0 0 20 20" fill="none" xmlns="http://www.w3.org/2000/svg">
<path d="M12.4 20H7.6L7.422 17.3C7.16054 17.2102 6.90474 17.1047 6.656 16.984L4.628 18.77L1.228 15.37L3.012 13.34C2.89467 13.0893 2.78933 12.8353 2.696 12.578L0 12.4V7.6L2.696 7.424C2.7885 7.16487 2.89396 6.91054 3.012 6.662L1.23 4.628L4.63 1.228L6.658 3.014C6.908 2.896 7.162 2.792 7.424 2.698L7.6 0H12.4L12.578 2.7C12.8388 2.7915 13.0945 2.89698 13.344 3.016L15.372 1.23L18.772 4.63L16.988 6.66C17.1053 6.91067 17.2107 7.16467 17.304 7.422L20 7.6V12.4L17.304 12.572C17.2142 12.8335 17.1087 13.0893 16.988 13.338L18.77 15.37L15.37 18.77L13.344 16.988C13.094 17.106 12.84 17.21 12.578 17.304L12.4 20ZM8.628 18.886H11.36L11.516 16.464L11.888 16.354C12.3279 16.2224 12.7533 16.0469 13.158 15.83L13.498 15.646L15.318 17.246L17.252 15.316L15.652 13.496L15.836 13.156C16.0548 12.7523 16.2304 12.3266 16.36 11.886L16.47 11.514L18.892 11.358V8.632L16.47 8.476L16.36 8.106C16.2304 7.66543 16.0548 7.23974 15.836 6.836L15.652 6.496L17.252 4.676L15.318 2.742L13.498 4.342L13.158 4.158C12.7533 3.94112 12.3279 3.76556 11.888 3.634L11.516 3.524L11.36 1.106H8.628L8.472 3.528L8.1 3.638C7.65978 3.76855 7.2342 3.94415 6.83 4.162L6.49 4.346L4.67 2.746L2.736 4.68L4.336 6.5L4.152 6.84C3.93284 7.24547 3.75591 7.67237 3.624 8.114L3.514 8.482L1.096 8.638V11.364L3.516 11.52L3.626 11.892C3.75863 12.3321 3.93553 12.7576 4.154 13.162L4.338 13.502L2.738 15.322L4.672 17.256L6.492 15.656L6.832 15.84C7.23574 16.0588 7.66143 16.2344 8.102 16.364L8.474 16.474L8.628 18.886ZM10 13.93C9.22215 13.9304 8.46167 13.7001 7.81475 13.2682C7.16783 12.8363 6.66354 12.2222 6.36569 11.5036C6.06784 10.7851 5.9898 9.99432 6.14146 9.2314C6.29311 8.46848 6.66764 7.76768 7.21766 7.21766C7.76768 6.66764 8.46848 6.29311 9.2314 6.14146C9.99432 5.9898 10.7851 6.06784 11.5036 6.36569C12.2222 6.66354 12.8363 7.16783 13.2682 7.81475C13.7001 8.46167 13.9304 9.22215 13.93 10C13.9274 11.0415 13.5125 12.0396 12.776 12.776C12.0396 13.5125 11.0415 13.9274 10 13.93ZM10 7.172C9.44147 7.17121 8.89524 7.33606 8.4304 7.64571C7.96556 7.95536 7.60297 8.39589 7.3885 8.91161C7.17403 9.42732 7.1173 9.99505 7.22549 10.543C7.33368 11.091 7.60192 11.5945 7.99631 11.99C8.39069 12.3855 8.8935 12.6552 9.44114 12.765C9.98879 12.8747 10.5567 12.8196 11.073 12.6066C11.5893 12.3936 12.0309 12.0322 12.3418 11.5683C12.6528 11.1043 12.8192 10.5585 12.82 10C12.8205 9.25119 12.5239 8.53278 11.9951 8.00254C11.4664 7.4723 10.7488 7.17359 10 7.172Z" fill="black"/>
</svg>
