<svg width="22" height="21" viewBox="0 0 22 21" fill="none" xmlns="http://www.w3.org/2000/svg">
<path d="M0.785714 9H21.2143C21.4227 9 21.6225 8.92098 21.7699 8.78033C21.9172 8.63968 22 8.44891 22 8.25V6.75C22 6.55109 21.9172 6.36032 21.7699 6.21967C21.6225 6.07902 21.4227 6 21.2143 6H0.785714C0.57733 6 0.37748 6.07902 0.23013 6.21967C0.0827804 6.36032 0 6.55109 0 6.75L0 8.25C0 8.44891 0.0827804 8.63968 0.23013 8.78033C0.37748 8.92098 0.57733 9 0.785714 9ZM21.2143 18H0.785714C0.57733 18 0.37748 18.079 0.23013 18.2197C0.0827804 18.3603 0 18.5511 0 18.75L0 20.25C0 20.4489 0.0827804 20.6397 0.23013 20.7803C0.37748 20.921 0.57733 21 0.785714 21H21.2143C21.4227 21 21.6225 20.921 21.7699 20.7803C21.9172 20.6397 22 20.4489 22 20.25V18.75C22 18.5511 21.9172 18.3603 21.7699 18.2197C21.6225 18.079 21.4227 18 21.2143 18ZM21.37 1.8298e-07H8.48719C8.40443 -6.14598e-05 8.32247 0.0154522 8.246 0.0456539C8.16953 0.0758555 8.10005 0.120152 8.04153 0.17601C7.98302 0.231869 7.93661 0.298192 7.90497 0.371185C7.87333 0.444179 7.85708 0.522411 7.85714 0.601407V2.39859C7.85708 2.47759 7.87333 2.55582 7.90497 2.62881C7.93661 2.70181 7.98302 2.76813 8.04153 2.82399C8.10005 2.87985 8.16953 2.92414 8.246 2.95435C8.32247 2.98455 8.40443 3.00006 8.48719 3H21.37C21.4527 3.00006 21.5347 2.98455 21.6111 2.95435C21.6876 2.92414 21.7571 2.87985 21.8156 2.82399C21.8741 2.76813 21.9205 2.70181 21.9522 2.62881C21.9838 2.55582 22.0001 2.47759 22 2.39859V0.601407C22.0001 0.522411 21.9838 0.444179 21.9522 0.371185C21.9205 0.298192 21.8741 0.231869 21.8156 0.17601C21.7571 0.120152 21.6876 0.0758555 21.6111 0.0456539C21.5347 0.0154522 21.4527 -6.14598e-05 21.37 1.8298e-07ZM21.37 12H8.48719C8.40443 11.9999 8.32247 12.0155 8.246 12.0457C8.16953 12.0759 8.10005 12.1202 8.04153 12.176C7.98302 12.2319 7.93661 12.2982 7.90497 12.3712C7.87333 12.4442 7.85708 12.5224 7.85714 12.6014V14.3986C7.85708 14.4776 7.87333 14.5558 7.90497 14.6288C7.93661 14.7018 7.98302 14.7681 8.04153 14.824C8.10005 14.8798 8.16953 14.9241 8.246 14.9543C8.32247 14.9845 8.40443 15.0001 8.48719 15H21.37C21.4527 15.0001 21.5347 14.9845 21.6111 14.9543C21.6876 14.9241 21.7571 14.8798 21.8156 14.824C21.8741 14.7681 21.9205 14.7018 21.9522 14.6288C21.9838 14.5558 22.0001 14.4776 22 14.3986V12.6014C22.0001 12.5224 21.9838 12.4442 21.9522 12.3712C21.9205 12.2982 21.8741 12.2319 21.8156 12.176C21.7571 12.1202 21.6876 12.0759 21.6111 12.0457C21.5347 12.0155 21.4527 11.9999 21.37 12Z" fill="black"/>
</svg>
