<svg width="29" height="35" viewBox="0 0 29 35" fill="none" xmlns="http://www.w3.org/2000/svg">
<path fill-rule="evenodd" clip-rule="evenodd" d="M0.625 14.4167C0.625 6.75466 6.83792 0.541748 14.5 0.541748C22.1621 0.541748 28.375 6.75466 28.375 14.4167V29.8334C28.375 32.3926 26.3092 34.4584 23.75 34.4584H14.5V31.3751H25.2917V29.8334H19.125V17.5001H25.2917V14.4167C25.2917 8.4505 20.4662 3.62508 14.5 3.62508C8.53375 3.62508 3.70833 8.4505 3.70833 14.4167V17.5001H9.875V29.8334H5.25C2.69083 29.8334 0.625 27.7676 0.625 25.2084V14.4167ZM6.79167 20.5834V26.7501H5.25C4.40208 26.7501 3.70833 26.0563 3.70833 25.2084V20.5834H6.79167ZM25.2917 20.5834V26.7501H22.2083V20.5834H25.2917Z" fill="black" fill-opacity="0.54"/>
</svg>
