<svg width="5" height="11" viewBox="0 0 5 11" fill="none" xmlns="http://www.w3.org/2000/svg">
<path d="M5 9.5V10.5C5 10.6354 4.95052 10.7526 4.85156 10.8516C4.7526 10.9505 4.63542 11 4.5 11H0.5C0.364583 11 0.247396 10.9505 0.148438 10.8516C0.0494792 10.7526 0 10.6354 0 10.5V9.5C0 9.36458 0.0494792 9.2474 0.148438 9.14844C0.247396 9.04948 0.364583 9 0.5 9H1V6H0.5C0.364583 6 0.247396 5.95052 0.148438 5.85156C0.0494792 5.7526 0 5.63542 0 5.5V4.5C0 4.36458 0.0494792 4.2474 0.148438 4.14844C0.247396 4.04948 0.364583 4 0.5 4H3.5C3.63542 4 3.7526 4.04948 3.85156 4.14844C3.95052 4.2474 4 4.36458 4 4.5V9H4.5C4.63542 9 4.7526 9.04948 4.85156 9.14844C4.95052 9.2474 5 9.36458 5 9.5ZM4 0.499999V2C4 2.13542 3.95052 2.2526 3.85156 2.35156C3.7526 2.45052 3.63542 2.5 3.5 2.5H1.5C1.36458 2.5 1.2474 2.45052 1.14844 2.35156C1.04948 2.2526 1 2.13542 1 2V0.499999C1 0.364583 1.04948 0.247395 1.14844 0.148437C1.2474 0.0494787 1.36458 -5.96046e-07 1.5 -5.96046e-07H3.5C3.63542 -5.96046e-07 3.7526 0.0494787 3.85156 0.148437C3.95052 0.247395 4 0.364583 4 0.499999Z" fill="#899EA3"/>
</svg>
