<svg width="17" height="17" viewBox="0 0 17 17" fill="none" xmlns="http://www.w3.org/2000/svg">
<path d="M0.78125 3.20009H3.83313C3.96986 3.70851 4.26834 4.15734 4.68254 4.47733C5.09674 4.79732 5.60363 4.97069 6.125 4.97069C6.64637 4.97069 7.15326 4.79732 7.56746 4.47733C7.98166 4.15734 8.28014 3.70851 8.41687 3.20009H16.2188C16.3762 3.20009 16.5272 3.13688 16.6386 3.02436C16.7499 2.91183 16.8125 2.75922 16.8125 2.60009C16.8125 2.44096 16.7499 2.28835 16.6386 2.17583C16.5272 2.06331 16.3762 2.00009 16.2188 2.00009H8.41687C8.28014 1.49167 7.98166 1.04284 7.56746 0.722851C7.15326 0.402861 6.64637 0.229492 6.125 0.229492C5.60363 0.229492 5.09674 0.402861 4.68254 0.722851C4.26834 1.04284 3.96986 1.49167 3.83313 2.00009H0.78125C0.623778 2.00009 0.472755 2.06331 0.361405 2.17583C0.250056 2.28835 0.1875 2.44096 0.1875 2.60009C0.1875 2.75922 0.250056 2.91183 0.361405 3.02436C0.472755 3.13688 0.623778 3.20009 0.78125 3.20009ZM6.125 1.40009C6.35987 1.40009 6.58946 1.47047 6.78474 1.60233C6.98002 1.73419 7.13223 1.9216 7.22211 2.14087C7.31199 2.36014 7.3355 2.60142 7.28968 2.8342C7.24386 3.06698 7.13076 3.2808 6.96469 3.44862C6.79861 3.61644 6.58702 3.73073 6.35667 3.77703C6.12632 3.82334 5.88755 3.79957 5.67056 3.70875C5.45358 3.61792 5.26811 3.46412 5.13763 3.26678C5.00715 3.06944 4.9375 2.83743 4.9375 2.60009C4.9375 2.28183 5.06261 1.97661 5.28531 1.75156C5.50801 1.52652 5.81006 1.40009 6.125 1.40009ZM16.2188 14.0001H8.41687C8.28014 13.4917 7.98166 13.0428 7.56746 12.7229C7.15326 12.4029 6.64637 12.2295 6.125 12.2295C5.60363 12.2295 5.09674 12.4029 4.68254 12.7229C4.26834 13.0428 3.96986 13.4917 3.83313 14.0001H0.78125C0.623778 14.0001 0.472755 14.0633 0.361405 14.1758C0.250056 14.2883 0.1875 14.441 0.1875 14.6001C0.1875 14.7592 0.250056 14.9118 0.361405 15.0244C0.472755 15.1369 0.623778 15.2001 0.78125 15.2001H3.83313C3.96986 15.7085 4.26834 16.1573 4.68254 16.4773C5.09674 16.7973 5.60363 16.9707 6.125 16.9707C6.64637 16.9707 7.15326 16.7973 7.56746 16.4773C7.98166 16.1573 8.28014 15.7085 8.41687 15.2001H16.2188C16.3762 15.2001 16.5272 15.1369 16.6386 15.0244C16.7499 14.9118 16.8125 14.7592 16.8125 14.6001C16.8125 14.441 16.7499 14.2883 16.6386 14.1758C16.5272 14.0633 16.3762 14.0001 16.2188 14.0001ZM6.125 15.8001C5.89013 15.8001 5.66054 15.7297 5.46526 15.5979C5.26998 15.466 5.11777 15.2786 5.02789 15.0593C4.93801 14.84 4.9145 14.5988 4.96032 14.366C5.00614 14.1332 5.11924 13.9194 5.28531 13.7516C5.45139 13.5837 5.66298 13.4695 5.89333 13.4231C6.12368 13.3768 6.36245 13.4006 6.57944 13.4914C6.79642 13.5823 6.98189 13.7361 7.11237 13.9334C7.24285 14.1307 7.3125 14.3628 7.3125 14.6001C7.3125 14.9184 7.18739 15.2236 6.96469 15.4486C6.74199 15.6737 6.43994 15.8001 6.125 15.8001ZM16.2188 8.00009H13.1669C13.0301 7.49167 12.7317 7.04284 12.3175 6.72285C11.9033 6.40286 11.3964 6.22949 10.875 6.22949C10.3536 6.22949 9.84674 6.40286 9.43254 6.72285C9.01834 7.04284 8.71986 7.49167 8.58312 8.00009H0.78125C0.623778 8.00009 0.472755 8.06331 0.361405 8.17583C0.250056 8.28835 0.1875 8.44096 0.1875 8.60009C0.1875 8.75922 0.250056 8.91183 0.361405 9.02436C0.472755 9.13688 0.623778 9.20009 0.78125 9.20009H8.58312C8.71986 9.70851 9.01834 10.1573 9.43254 10.4773C9.84674 10.7973 10.3536 10.9707 10.875 10.9707C11.3964 10.9707 11.9033 10.7973 12.3175 10.4773C12.7317 10.1573 13.0301 9.70851 13.1669 9.20009H16.2188C16.3762 9.20009 16.5272 9.13688 16.6386 9.02436C16.7499 8.91183 16.8125 8.75922 16.8125 8.60009C16.8125 8.44096 16.7499 8.28835 16.6386 8.17583C16.5272 8.06331 16.3762 8.00009 16.2188 8.00009ZM10.875 9.80009C10.6401 9.80009 10.4105 9.72971 10.2153 9.59786C10.02 9.466 9.86777 9.27858 9.77789 9.05931C9.68801 8.84004 9.6645 8.59876 9.71032 8.36598C9.75614 8.13321 9.86924 7.91939 10.0353 7.75156C10.2014 7.58374 10.413 7.46945 10.6433 7.42315C10.8737 7.37685 11.1124 7.40061 11.3294 7.49144C11.5464 7.58226 11.7319 7.73607 11.8624 7.93341C11.9929 8.13075 12.0625 8.36275 12.0625 8.60009C12.0625 8.91835 11.9374 9.22358 11.7147 9.44862C11.492 9.67366 11.1899 9.80009 10.875 9.80009Z" fill="black"/>
</svg>
