<svg width="22" height="22" viewBox="0 0 22 22" fill="none" xmlns="http://www.w3.org/2000/svg">
<path d="M10.9994 15.5585C16.5242 15.5585 20.5624 19.7951 20.5624 22H22C22 19.5467 18.9067 16.0612 14.6026 14.717C17.1968 13.4314 18.9798 10.8053 18.9798 7.77924C18.9798 3.48984 15.3999 0 11 0C6.6007 0 3.02086 3.48984 3.02086 7.77924C3.02086 10.805 4.80318 13.4311 7.39738 14.7167C3.09366 16.0609 0 19.5467 0 22H1.43731C1.43731 19.7948 5.47547 15.5585 10.9994 15.5585ZM4.45849 7.77924C4.45849 4.26255 7.39294 1.40131 11 1.40131C14.6071 1.40131 17.5421 4.26224 17.5421 7.77924C17.5421 11.2962 14.6071 14.1572 11 14.1572C7.39294 14.1572 4.45849 11.2962 4.45849 7.77924Z" fill="black"/>
</svg>
